<svg width="1280" height="420" viewBox="0 0 1280 420" fill="none" xmlns="http://www.w3.org/2000/svg" role="img" aria-label="Migration Safety Check project cover">
  <rect width="1280" height="420" rx="30" fill="#101828"/>
  <path d="M0 332C168 286 293 306 420 336C560 369 699 376 853 325C1018 270 1148 277 1280 320V420H0V332Z" fill="#2563eb" opacity=".16"/>
  <path d="M86 84h560" stroke="#2563eb" stroke-width="10" stroke-linecap="round"/>
  <text x="86" y="176" fill="#f8fafc" font-family="Manrope, ui-sans-serif, system-ui" font-size="50" font-weight="800">Migration Safety Check</text>
  <text x="90" y="237" fill="#dbeafe" font-family="Manrope, ui-sans-serif, system-ui" font-size="24" font-weight="500">Review SQL migration notes for destructive...</text>
  <rect x="90" y="288" width="288" height="46" rx="23" fill="#2563eb" opacity=".20"/>
  <text x="118" y="319" fill="#f8fafc" font-family="Manrope, ui-sans-serif, system-ui" font-size="18" font-weight="800" letter-spacing="1">MIGRATION PLANNING</text>

  <path d="M793 111h326v196H793z" fill="none" stroke="#2563eb" stroke-width="12"/>
  <path d="M823 151h81v116h-81zM933 189h81v78h-81zM1043 132h45v135h-45z" fill="#14b8a6" opacity=".75"/>
</svg>
